<svg width="18" height="18" viewBox="0 0 18 18" fill="none" xmlns="http://www.w3.org/2000/svg">
<path fill-rule="evenodd" clip-rule="evenodd" d="M16.3943 2.29H3.74199L2.66095 0.352293C2.53961 0.134789 2.31006 0 2.061 0H0.687C0.307584 0 0 0.307584 0 0.687C0 1.06642 0.307584 1.374 0.687 1.374H1.65759L2.72445 3.28629L5.1849 8.7303L5.18742 8.7358L5.40413 9.21533L2.93383 11.8503C2.7562 12.0398 2.7006 12.3132 2.79013 12.557C2.87965 12.8008 3.09898 12.9733 3.35701 13.0028L5.60866 13.2601C8.42509 13.582 11.269 13.582 14.0853 13.2601L16.337 13.0028C16.714 12.9597 16.9847 12.6192 16.9416 12.2422C16.8985 11.8652 16.558 11.5945 16.181 11.6377L13.9293 11.895C11.2166 12.205 8.4774 12.205 5.76467 11.895L4.8711 11.7929L6.68421 9.85891C6.70175 9.84013 6.71803 9.82071 6.73308 9.80065L7.42266 9.89042C8.389 10.0162 9.36573 10.0408 10.3372 9.96397C12.6029 9.7848 14.7027 8.70667 16.1688 6.96993L16.6982 6.34261C16.7161 6.32154 16.7326 6.29943 16.7477 6.27638L17.7346 4.77244C18.434 3.70644 17.6694 2.29 16.3943 2.29ZM6.78414 8.4217C6.63263 8.40201 6.50198 8.30583 6.43818 8.16706L6.43696 8.1644L4.40297 3.664H16.3943C16.5765 3.664 16.6857 3.86634 16.5857 4.01864L15.6216 5.48797L15.1188 6.08363C13.8895 7.53996 12.1287 8.44396 10.2289 8.59428C9.35263 8.66353 8.47153 8.64127 7.59994 8.52787L6.78414 8.4217Z" fill="white"/>
<path d="M4.80906 14.427C4.05022 14.427 3.43506 15.0422 3.43506 15.801C3.43506 16.5598 4.05022 17.175 4.80906 17.175C5.5679 17.175 6.18306 16.5598 6.18306 15.801C6.18306 15.0422 5.5679 14.427 4.80906 14.427Z" fill="white"/>
<path d="M13.511 15.801C13.511 15.0422 14.1262 14.427 14.885 14.427C15.6438 14.427 16.259 15.0422 16.259 15.801C16.259 16.5598 15.6438 17.175 14.885 17.175C14.1262 17.175 13.511 16.5598 13.511 15.801Z" fill="white"/>
</svg>
