<svg width="187" height="48" viewBox="0 0 187 48" fill="none" xmlns="http://www.w3.org/2000/svg">
<g clip-path="url(#clip0_177_225)">
<g filter="url(#filter0_d_177_225)">
<path d="M78.62 14.22C78.7933 14.1267 78.98 14.08 79.18 14.08C79.46 14.08 79.72 14.16 79.96 14.32C80.0533 14.3867 80.14 14.4533 80.22 14.52C80.3 14.5867 80.3733 14.6467 80.44 14.7C80.52 14.7533 80.6267 14.8067 80.76 14.86C80.8933 14.9133 81.0067 14.9667 81.1 15.02C81.5 15.2333 82.0867 15.5667 82.86 16.02L84.64 17.04C85.6667 17.6267 86.5667 18.1333 87.34 18.56L88.62 19.24C89.38 19.6267 90.02 19.9733 90.54 20.28C91.0733 20.5867 91.5667 20.9333 92.02 21.32C92.3533 21.6267 92.6133 21.9267 92.8 22.22C92.9867 22.5133 93.08 22.8333 93.08 23.18L93.06 23.4C92.9267 24.1733 92.52 24.9133 91.84 25.62C91.32 26.18 90.7067 26.66 90 27.06C89.3067 27.46 88.5067 27.84 87.6 28.2C86.0533 28.7867 84.28 29.3133 82.28 29.78C82.0667 29.8333 81.9133 29.8667 81.82 29.88L81 30.08L79.84 30.3C79.48 30.3667 79.04 30.4333 78.52 30.5C78.4667 30.5133 78.3667 30.54 78.22 30.58C78.0867 30.6067 77.9667 30.62 77.86 30.62C77.8067 30.62 77.7267 30.6067 77.62 30.58C77.34 30.5267 77.2 30.36 77.2 30.08C77.2 29.8933 77.2667 29.68 77.4 29.44C77.52 29.1867 77.6467 28.9867 77.78 28.84C78.18 28.3733 78.7667 28.0533 79.54 27.88C79.7 27.84 79.7933 27.8 79.82 27.76C79.86 27.7067 79.8867 27.5933 79.9 27.42C79.9 27.18 79.9133 26.82 79.94 26.34C80.0467 25.0733 80.1133 24.1067 80.14 23.44C80.1933 22.8 80.2267 22.32 80.24 22C80.2533 21.9333 80.2667 21.8467 80.28 21.74C80.2933 21.62 80.3 21.48 80.3 21.32C80.3 21.1467 80.2733 20.9867 80.22 20.84C79.94 20.16 79.4933 19.32 78.88 18.32C78.88 18.3333 78.8867 18.3533 78.9 18.38C78.9267 18.3933 78.9467 18.4267 78.96 18.48C78.7867 18.1733 78.5 17.7267 78.1 17.14C78.0467 17.0733 77.9867 16.9867 77.92 16.88C77.8533 16.7733 77.7933 16.6867 77.74 16.62C77.7 16.58 77.6467 16.5267 77.58 16.46C77.5133 16.38 77.46 16.3133 77.42 16.26C77.3533 16.1267 77.32 16.0067 77.32 15.9C77.32 15.6067 77.4667 15.3 77.76 14.98C78.04 14.66 78.3267 14.4067 78.62 14.22ZM83.28 27.1C84.4933 26.8333 85.8067 26.48 87.22 26.04C87.98 25.8 88.6 25.58 89.08 25.38C89.56 25.18 90.0133 24.92 90.44 24.6C90.0533 24.1333 89.6133 23.7333 89.12 23.4C88.64 23.0533 87.9533 22.6133 87.06 22.08L85.56 21.18L83.14 19.68C83.6333 21.08 83.88 22.3933 83.88 23.62C83.88 24.5133 83.7533 25.4 83.5 26.28L83.28 27.1ZM97.533 23.18C98.053 22.7667 98.473 22.4 98.793 22.08C99.1263 21.76 99.3796 21.44 99.553 21.12C98.833 20.9333 97.7663 20.6267 96.353 20.2L96.253 24.26C96.653 23.9267 96.8863 23.7267 96.953 23.66L97.533 23.18ZM100.753 25.98C100.86 25.7667 101.086 25.5867 101.433 25.44C101.78 25.28 102.113 25.2 102.433 25.2C102.873 25.2 103.093 25.34 103.093 25.62C103.093 25.7 103.073 25.7933 103.033 25.9C102.486 27.18 102.073 28.42 101.793 29.62C101.726 29.8867 101.533 30.1333 101.213 30.36C101.08 30.5333 100.873 30.68 100.593 30.8C100.326 30.92 100.06 30.98 99.793 30.98C99.5663 30.98 99.3796 30.9333 99.233 30.84C99.0996 30.7467 99.0263 30.6 99.013 30.4C98.9596 29.5333 98.673 28.74 98.153 28.02C97.6463 27.3 96.993 26.8333 96.193 26.62L96.093 29.52C96.0796 29.7733 95.8663 30.0067 95.453 30.22C95.053 30.4333 94.6663 30.54 94.293 30.54C94.093 30.54 93.933 30.5067 93.813 30.44C93.693 30.36 93.633 30.24 93.633 30.08L93.693 27.32C93.5196 27.2 93.433 27.06 93.433 26.9C93.433 26.7133 93.533 26.5333 93.733 26.36C93.7996 23.9333 93.8796 21.5133 93.973 19.1C93.9863 18.82 94.173 18.58 94.533 18.38C94.9063 18.1667 95.2796 18.06 95.653 18.06C95.933 18.06 96.133 18.1267 96.253 18.26C97.7063 18.66 99.213 19.1 100.773 19.58C101.013 19.5267 101.18 19.5 101.273 19.5C101.5 19.5 101.673 19.5533 101.793 19.66C101.926 19.7533 101.993 19.9 101.993 20.1C101.993 20.6467 101.813 21.1533 101.453 21.62C101.093 22.0733 100.593 22.58 99.953 23.14L99.553 23.5C98.913 24.1267 98.293 24.68 97.693 25.16C98.7863 25.4667 99.6663 26.0733 100.333 26.98C100.386 26.8467 100.526 26.5133 100.753 25.98ZM103.968 19.54C103.982 19.2733 104.175 19.04 104.548 18.84C104.922 18.6267 105.295 18.52 105.668 18.52C105.882 18.52 106.055 18.5667 106.188 18.66C106.322 18.74 106.382 18.8733 106.368 19.06L105.788 29.92C105.775 30.2 105.582 30.4467 105.208 30.66C104.835 30.86 104.462 30.96 104.088 30.96C103.595 30.96 103.355 30.7667 103.368 30.38L103.968 19.54ZM103.928 16.9C103.902 17.0867 103.948 17.2267 104.068 17.32C104.202 17.4133 104.375 17.46 104.588 17.46C104.948 17.46 105.315 17.36 105.688 17.16C106.062 16.96 106.268 16.72 106.308 16.44C106.415 15.7733 106.488 15.2733 106.528 14.94C106.582 14.6067 106.375 14.44 105.908 14.44C105.548 14.44 105.175 14.54 104.788 14.74C104.402 14.94 104.195 15.1667 104.168 15.42L103.928 16.9ZM112.331 24.54C112.531 24.0333 112.631 23.5467 112.631 23.08C112.631 22.4667 112.458 21.9667 112.111 21.58C111.591 20.9667 110.718 20.6733 109.491 20.7C109.251 22.8067 109.064 25.3467 108.931 28.32C109.691 27.92 110.371 27.3933 110.971 26.74C111.571 26.0733 112.024 25.34 112.331 24.54ZM109.691 19.14C109.838 19.1267 110.064 19.12 110.371 19.12C111.998 19.12 113.211 19.52 114.011 20.32C114.611 20.9067 114.911 21.66 114.911 22.58C114.911 23.06 114.804 23.6333 114.591 24.3C114.151 25.5533 113.418 26.68 112.391 27.68C111.364 28.6667 110.191 29.42 108.871 29.94C108.818 31.3 108.778 32.4867 108.751 33.5C108.724 34.5267 108.704 35.38 108.691 36.06C108.678 37.6867 108.638 39.32 108.571 40.96C108.558 41.24 108.358 41.4867 107.971 41.7C107.584 41.9133 107.191 42.02 106.791 42.02C106.324 42.02 106.091 41.8467 106.091 41.5L106.111 39.9C106.124 39.38 106.144 38.1267 106.171 36.14C106.211 34.1533 106.271 32.3 106.351 30.58C105.991 30.62 105.638 30.64 105.291 30.64C105.038 30.64 104.851 30.6 104.731 30.52C104.598 30.44 104.531 30.3333 104.531 30.2C104.531 29.96 104.698 29.7067 105.031 29.44C105.351 29.1733 105.678 29.04 106.011 29.04C106.198 29.04 106.331 29.0333 106.411 29.02C106.558 26.1533 106.784 23.4 107.091 20.76C106.998 20.7067 106.951 20.62 106.951 20.5C106.951 20.34 107.038 20.1533 107.211 19.94C107.211 19.86 107.224 19.7267 107.251 19.54C107.291 19.26 107.504 19.02 107.891 18.82C108.278 18.6067 108.651 18.5 109.011 18.5C109.238 18.5 109.411 18.5467 109.531 18.64C109.664 18.7333 109.718 18.8733 109.691 19.06V19.14ZM118.347 28.66C118.467 28.74 118.56 28.8467 118.627 28.98C118.694 29.1133 118.727 29.2533 118.727 29.4C118.727 29.52 118.707 29.64 118.667 29.76C118.547 30.0667 118.247 30.3533 117.767 30.62C117.3 30.8733 116.827 31 116.347 31C115.974 31 115.68 30.92 115.467 30.76C115.294 30.64 115.207 30.44 115.207 30.16C115.207 29.9733 115.26 29.8067 115.367 29.66C115.607 29.2733 116.014 28.9933 116.587 28.82L116.727 28.76C117.06 28.6133 117.36 28.5333 117.627 28.52H117.787C118.027 28.52 118.214 28.5667 118.347 28.66ZM119.943 16.52C119.716 16.36 119.603 16.1067 119.603 15.76C119.603 15.6933 119.616 15.58 119.643 15.42C119.736 15.02 119.916 14.6467 120.183 14.3C120.463 13.94 120.783 13.6533 121.143 13.44C121.423 13.28 121.703 13.2 121.983 13.2C122.276 13.2 122.503 13.3 122.663 13.5C122.783 13.66 122.843 13.8533 122.843 14.08C122.843 14.28 122.783 14.5333 122.663 14.84C122.529 15.2133 122.323 15.5533 122.043 15.86C121.776 16.1667 121.469 16.4 121.123 16.56C120.843 16.6933 120.596 16.74 120.383 16.7C120.183 16.6733 120.036 16.6133 119.943 16.52ZM121.643 28.06C121.643 28.1533 121.623 28.26 121.583 28.38C121.556 28.5 121.536 28.5867 121.523 28.64L121.483 28.76C121.349 29.2533 121.109 29.72 120.763 30.16C120.416 30.6 119.983 30.82 119.463 30.82C119.409 30.82 119.369 30.8133 119.343 30.8C119.129 30.7733 118.956 30.6933 118.823 30.56C118.623 30.32 118.523 29.9467 118.523 29.44C118.523 29.2533 118.536 29.04 118.563 28.8C118.549 28.76 118.549 28.72 118.563 28.68C118.563 28.6267 118.563 28.5933 118.563 28.58C118.603 27.6333 118.743 26.3467 118.983 24.72L119.063 24.1C119.196 23.1933 119.283 22.5133 119.323 22.06L119.403 21.16C119.403 21.0667 119.409 20.9933 119.423 20.94C119.449 20.7533 119.456 20.6333 119.443 20.58C119.429 20.5667 119.423 20.5533 119.423 20.54C119.423 20.5133 119.416 20.4933 119.403 20.48C119.323 20.3733 119.283 20.2333 119.283 20.06C119.283 19.8467 119.303 19.6333 119.343 19.42C119.356 19.38 119.363 19.3133 119.363 19.22C119.456 18.6067 119.716 18.08 120.143 17.64C120.583 17.2 120.996 16.98 121.383 16.98C121.529 16.98 121.669 17.0133 121.803 17.08C122.136 17.2533 122.303 17.62 122.303 18.18C122.276 18.5533 122.263 18.8333 122.263 19.02L122.243 19.54L122.183 20.64C122.169 21.3333 122.129 22.04 122.063 22.76C122.049 23.0267 121.969 23.9067 121.823 25.4L121.763 26.02L121.723 26.42L121.603 27.52C121.589 27.5733 121.583 27.62 121.583 27.66C121.596 27.6867 121.603 27.72 121.603 27.76C121.629 27.8267 121.636 27.88 121.623 27.92L121.643 28.06ZM125.716 14.36C125.916 14.2 126.136 14.1 126.376 14.06H126.436C126.649 14.06 126.789 14.1533 126.856 14.34C126.936 14.4867 126.989 14.6867 127.016 14.94C127.043 15.0733 127.056 15.1667 127.056 15.22C127.243 15.8733 127.409 16.4467 127.556 16.94C127.716 17.42 127.849 17.8267 127.956 18.16C128.063 18.52 128.229 19.0667 128.456 19.8C128.683 20.52 128.876 21.16 129.036 21.72C129.089 21.8933 129.123 22.0067 129.136 22.06C129.136 21.6867 129.123 21.1267 129.096 20.38L129.076 19.54L129.056 19.02C129.043 18.4733 129.016 18.02 128.976 17.66C128.949 17.3 128.889 16.9467 128.796 16.6C128.796 16.2533 128.849 15.9467 128.956 15.68L129.196 15.16C129.343 14.88 129.563 14.6 129.856 14.32C130.069 14.1333 130.303 14.02 130.556 13.98C130.783 13.98 130.956 14.08 131.076 14.28C131.276 14.8 131.389 15.3667 131.416 15.98C131.416 16.3533 131.423 16.6267 131.436 16.8C131.436 17.4933 131.443 18.0067 131.456 18.34C131.456 19.0733 131.443 20.16 131.416 21.6C131.416 22.3333 131.376 23.42 131.296 24.86L131.276 25.28C131.263 25.4267 131.243 25.68 131.216 26.04C131.203 26.4 131.176 26.72 131.136 27C131.016 27.8933 130.869 28.6 130.696 29.12C130.549 29.5067 130.416 29.8067 130.296 30.02C130.163 30.2733 129.936 30.5467 129.616 30.84C129.389 31.04 129.169 31.14 128.956 31.14C128.876 31.14 128.796 31.12 128.716 31.08C128.503 30.9733 128.323 30.6933 128.176 30.24C128.056 29.8667 127.936 29.4267 127.816 28.92C127.736 28.5467 127.683 28.2667 127.656 28.08C127.509 27.3333 127.403 26.8267 127.336 26.56C127.189 25.8133 126.943 24.7067 126.596 23.24C126.156 25.96 125.476 28.2133 124.556 30C124.463 30.2 124.329 30.3867 124.156 30.56C123.996 30.7333 123.829 30.86 123.656 30.94C123.563 30.9933 123.456 31.02 123.336 31.02C123.229 31.02 123.149 31.0067 123.096 30.98C122.923 30.86 122.836 30.6533 122.836 30.36C122.836 30.24 122.843 30.1533 122.856 30.1C122.923 29.7667 123.029 29.4733 123.176 29.22L123.216 29.14C123.456 28.5933 123.669 27.9933 123.856 27.34C124.069 26.4467 124.236 25.5267 124.356 24.58C124.476 23.6333 124.583 22.5533 124.676 21.34C124.703 20.6733 124.716 20.1867 124.716 19.88L124.696 18.84C124.696 18.6 124.689 18.4133 124.676 18.28C124.676 18.1867 124.669 18.0733 124.656 17.94C124.656 17.7933 124.663 17.6267 124.676 17.44C124.676 16.9867 124.683 16.6333 124.696 16.38C124.723 16.1133 124.783 15.86 124.876 15.62C125.089 15.0733 125.369 14.6533 125.716 14.36ZM137.225 19.5L137.265 19.48L137.225 19.5ZM140.925 24.68C141.045 24.6267 141.172 24.6 141.305 24.6C141.625 24.6 141.879 24.7933 142.065 25.18C142.265 25.5667 142.365 25.9867 142.365 26.44C142.365 26.68 142.332 26.8867 142.265 27.06C142.065 27.58 141.739 28.0533 141.285 28.48C140.832 28.9067 140.285 29.34 139.645 29.78C139.019 30.1933 138.279 30.5733 137.425 30.92C136.585 31.2533 135.805 31.42 135.085 31.42C134.005 31.42 133.285 30.9933 132.925 30.14C132.712 29.66 132.605 29.0533 132.605 28.32C132.605 27.4 132.752 26.4533 133.045 25.48C133.352 24.4933 133.765 23.3267 134.285 21.98C134.805 20.66 135.425 19.4067 136.145 18.22C136.865 17.02 137.659 16.42 138.525 16.42C138.752 16.42 138.959 16.4667 139.145 16.56C139.292 15.5467 139.632 14.8 140.165 14.32C140.499 14.04 140.785 13.9 141.025 13.9C141.305 13.9 141.519 14.0667 141.665 14.4C141.759 14.64 141.805 14.9467 141.805 15.32C141.805 15.5067 141.792 15.76 141.765 16.08L141.745 16.68C141.719 17.6533 141.659 18.6267 141.565 19.6C141.485 20.48 141.292 21.32 140.985 22.12C140.679 22.92 140.192 23.3533 139.525 23.42C139.192 23.46 138.919 23.2867 138.705 22.9C138.505 22.5133 138.292 21.9467 138.065 21.2C137.919 20.72 137.792 20.36 137.685 20.12C137.592 19.8667 137.485 19.68 137.365 19.56C136.605 20.9067 136.045 22.38 135.685 23.98L135.585 24.38C135.479 24.86 135.392 25.26 135.325 25.58C135.272 25.8867 135.245 26.1933 135.245 26.5C135.245 27.18 135.419 27.6467 135.765 27.9C136.005 28.1 136.345 28.2 136.785 28.2C137.079 28.2 137.399 28.1533 137.745 28.06C138.092 27.98 138.459 27.8533 138.845 27.68C138.965 27.6267 139.145 27.5333 139.385 27.4C139.492 27.3867 139.545 27.3467 139.545 27.28C139.545 27.2267 139.512 27.1733 139.445 27.12C139.472 27 139.499 26.8333 139.525 26.62C139.552 26.42 139.585 26.2533 139.625 26.12C139.665 25.9867 139.732 25.8467 139.825 25.7C140.172 25.1933 140.539 24.8533 140.925 24.68Z" fill="white"/>
</g>
<path d="M65.9998 20.15L49.905 27.003C48.5703 27.5677 47.4492 27.8509 46.5427 27.8509C45.516 27.8509 44.7707 27.4916 44.3087 26.772C44.0182 26.31 43.9329 25.7242 44.0521 25.0138C44.1712 24.3034 44.4884 23.5472 45.0017 22.7423C45.4298 22.0915 46.1311 21.2362 47.1073 20.1757C46.7762 20.6969 46.5334 21.2693 46.3887 21.8697C46.132 22.9651 46.363 23.769 47.0817 24.2823C47.4236 24.5216 47.8938 24.6417 48.4933 24.6417C48.9718 24.6417 49.5108 24.5647 50.1103 24.4107L65.9998 20.15Z" fill="white"/>
</g>
<defs>
<filter id="filter0_d_177_225" x="73.2002" y="13.2" width="73.165" height="36.82" filterUnits="userSpaceOnUse" color-interpolation-filters="sRGB">
<feFlood flood-opacity="0" result="BackgroundImageFix"/>
<feColorMatrix in="SourceAlpha" type="matrix" values="0 0 0 0 0 0 0 0 0 0 0 0 0 0 0 0 0 0 127 0" result="hardAlpha"/>
<feOffset dy="4"/>
<feGaussianBlur stdDeviation="2"/>
<feComposite in2="hardAlpha" operator="out"/>
<feColorMatrix type="matrix" values="0 0 0 0 1 0 0 0 0 1 0 0 0 0 1 0 0 0 0.25 0"/>
<feBlend mode="normal" in2="BackgroundImageFix" result="effect1_dropShadow_177_225"/>
<feBlend mode="normal" in="SourceGraphic" in2="effect1_dropShadow_177_225" result="shape"/>
</filter>
<clipPath id="clip0_177_225">
<rect width="187" height="47.2222" fill="white"/>
</clipPath>
</defs>
</svg>
