<svg width="100" height="100" viewBox="0 0 100 100" fill="none" xmlns="http://www.w3.org/2000/svg">
<path d="M99.9997 32.5L26.8414 63.65C20.7747 66.2167 15.6789 67.5042 11.558 67.5042C6.89138 67.5042 3.50388 65.8708 1.40388 62.6C0.0830459 60.5 -0.304454 57.8375 0.237213 54.6083C0.778879 51.3792 2.22055 47.9417 4.55388 44.2833C6.49971 41.325 9.68721 37.4375 14.1247 32.6167C12.6196 34.9861 11.5158 37.5877 10.858 40.3167C9.69138 45.2958 10.7414 48.95 14.008 51.2833C15.5622 52.3708 17.6997 52.9167 20.4247 52.9167C22.5997 52.9167 25.0497 52.5667 27.7747 51.8667L99.9997 32.5Z" fill="white"/>
</svg>
