<svg width="18" height="18" viewBox="0 0 18 18" fill="none" xmlns="http://www.w3.org/2000/svg">
<path fill-rule="evenodd" clip-rule="evenodd" d="M11.342 12.4392C8.6002 14.6351 4.58685 14.4623 2.04527 11.9207C-0.681757 9.19368 -0.681757 4.7723 2.04527 2.04527C4.7723 -0.681757 9.1937 -0.681757 11.9207 2.04527C14.4623 4.58685 14.6352 8.60017 12.4392 11.342L17.7727 16.6755C18.0758 16.9785 18.0758 17.4698 17.7727 17.7728C17.4698 18.0758 16.9785 18.0758 16.6755 17.7728L11.342 12.4392ZM3.14254 10.8235C1.02152 8.70238 1.02152 5.26356 3.14254 3.14254C5.26356 1.02152 8.70241 1.02152 10.8235 3.14254C12.9429 5.26201 12.9444 8.69731 10.8281 10.8188C10.8265 10.8203 10.8249 10.8218 10.8234 10.8235C10.8218 10.825 10.8203 10.8266 10.8187 10.8281C8.69734 12.9444 5.26201 12.9429 3.14254 10.8235Z" fill="white"/>
</svg>
