<svg width="18" height="20" viewBox="0 0 18 20" fill="none" xmlns="http://www.w3.org/2000/svg">
<path fill-rule="evenodd" clip-rule="evenodd" d="M4.06433 4.93548C4.06433 2.20969 6.27402 0 8.99981 0C11.7256 0 13.9353 2.20969 13.9353 4.93548C13.9353 7.66127 11.7256 9.87097 8.99981 9.87097C6.27402 9.87097 4.06433 7.66127 4.06433 4.93548ZM8.99981 1.74194C7.23605 1.74194 5.80627 3.17174 5.80627 4.93548C5.80627 6.69923 7.23605 8.12903 8.99981 8.12903C10.7636 8.12903 12.1934 6.69923 12.1934 4.93548C12.1934 3.17174 10.7636 1.74194 8.99981 1.74194Z" fill="white"/>
<path fill-rule="evenodd" clip-rule="evenodd" d="M4.35484 13.3549C2.91177 13.3549 1.74194 14.5248 1.74194 15.9678V17.3477C1.74194 17.3688 1.75716 17.3867 1.7779 17.39C6.56097 18.171 11.4391 18.171 16.2221 17.39C16.2429 17.3867 16.2581 17.3688 16.2581 17.3477V15.9678C16.2581 14.5248 15.0882 13.3549 13.6452 13.3549H13.2493C13.2187 13.3549 13.1883 13.3598 13.1592 13.3692L12.1541 13.6975C10.1046 14.3666 7.89538 14.3666 5.84591 13.6975L4.8408 13.3692C4.81171 13.3598 4.78129 13.3549 4.75069 13.3549H4.35484ZM0 15.9678C0 13.5626 1.94973 11.6129 4.35484 11.6129H4.75069C4.96493 11.6129 5.17783 11.6469 5.3815 11.7133L6.38662 12.0416C8.08479 12.596 9.91521 12.596 11.6134 12.0416L12.6185 11.7133C12.8222 11.6469 13.035 11.6129 13.2493 11.6129H13.6452C16.0503 11.6129 18 13.5626 18 15.9678V17.3477C18 18.2224 17.3661 18.9682 16.5027 19.1092C11.5338 19.9205 6.46618 19.9205 1.49722 19.1092C0.633925 18.9682 0 18.2224 0 17.3477V15.9678Z" fill="white"/>
</svg>
